<svg width="128" height="128" viewBox="0 0 128 128" fill="none" xmlns="http://www.w3.org/2000/svg">
<rect width="128" height="128" fill="white"/>
<rect x="65" y="50" width="30" height="10" rx="2" fill="#357DED"/>
<rect x="65" y="38" width="30" height="10" rx="2" fill="#357DED"/>
<rect x="65" y="62" width="30" height="10" rx="2" fill="#357DED"/>
<rect x="65" y="74" width="30" height="10" rx="2" fill="#357DED"/>
<rect x="33" y="50" width="30" height="10" rx="2" fill="#092234"/>
<rect x="33" y="38" width="30" height="10" rx="2" fill="#092234"/>
<rect x="33" y="62" width="30" height="10" rx="2" fill="#092234"/>
<rect x="33" y="74" width="30" height="10" rx="2" fill="#092234"/>
<rect x="1" y="37" width="30" height="10" rx="2" fill="#357DED"/>
<rect x="1" y="25" width="30" height="10" rx="2" fill="#357DED"/>
<rect x="1" y="13" width="30" height="10" rx="2" fill="#357DED"/>
<rect x="1" y="49" width="30" height="10" rx="2" fill="#357DED"/>
<rect x="1" y="61" width="30" height="10" rx="2" fill="#357DED"/>
<rect x="97" y="37" width="30" height="10" rx="2" fill="#135290"/>
<rect x="97" y="25" width="30" height="10" rx="2" fill="#135290"/>
<rect x="97" y="13" width="30" height="10" rx="2" fill="#135290"/>
<rect x="97" y="1" width="30" height="10" rx="2" fill="#135290"/>
<rect x="97" y="49" width="30" height="10" rx="2" fill="#135290"/>
<rect x="97" y="61" width="30" height="10" rx="2" fill="#135290"/>
<path d="M18.1105 125.216C15.6145 125.216 13.3585 124.664 11.3425 123.56C9.3505 122.456 7.7785 120.932 6.6265 118.988C5.4985 117.02 4.9345 114.824 4.9345 112.4C4.9345 109.976 5.4985 107.792 6.6265 105.848C7.7785 103.88 9.3625 102.344 11.3785 101.24C13.3945 100.136 15.6505 99.584 18.1465 99.584C20.0185 99.584 21.7465 99.896 23.3305 100.52C24.9145 101.144 26.2585 102.056 27.3625 103.256L25.6705 104.948C23.7025 102.956 21.2185 101.96 18.2185 101.96C16.2265 101.96 14.4145 102.416 12.7825 103.328C11.1505 104.24 9.8665 105.488 8.9305 107.072C8.0185 108.656 7.5625 110.432 7.5625 112.4C7.5625 114.368 8.0185 116.144 8.9305 117.728C9.8665 119.312 11.1505 120.56 12.7825 121.472C14.4145 122.384 16.2265 122.84 18.2185 122.84C21.2425 122.84 23.7265 121.832 25.6705 119.816L27.3625 121.508C26.2585 122.708 24.9025 123.632 23.2945 124.28C21.7105 124.904 19.9825 125.216 18.1105 125.216Z" fill="#092234"/>
<path d="M109.786 125.216C108.346 125.216 107.014 124.904 105.79 124.28C104.566 123.656 103.57 122.768 102.802 121.616L104.386 119.816C105.778 121.88 107.59 122.912 109.822 122.912C112.942 122.912 114.502 121.064 114.502 117.368V102.104H105.286V99.8H117.13V117.26C117.13 119.9 116.506 121.892 115.258 123.236C114.034 124.556 112.21 125.216 109.786 125.216Z" fill="#092234"/>
<path d="M60.4876 99.8L49.3276 125H46.6996L35.5396 99.8H38.4196L48.0676 121.688L57.7876 99.8H60.4876Z" fill="#092234"/>
<path d="M69.2329 99.8H79.4929C82.1569 99.8 84.5089 100.34 86.5489 101.42C88.5889 102.476 90.1729 103.964 91.3009 105.884C92.4289 107.78 92.9929 109.952 92.9929 112.4C92.9929 114.848 92.4289 117.032 91.3009 118.952C90.1729 120.848 88.5889 122.336 86.5489 123.416C84.5089 124.472 82.1569 125 79.4929 125H69.2329V99.8ZM79.3489 122.696C81.5569 122.696 83.4889 122.264 85.1449 121.4C86.8009 120.512 88.0849 119.3 88.9969 117.764C89.9089 116.204 90.3649 114.416 90.3649 112.4C90.3649 110.384 89.9089 108.608 88.9969 107.072C88.0849 105.512 86.8009 104.3 85.1449 103.436C83.4889 102.548 81.5569 102.104 79.3489 102.104H71.8969V122.696H79.3489Z" fill="#092234"/>
</svg>
